# File created by Blade
# Date/Time:  Fri Jan 16 19:14:28 2015
# Frame Rate: 120.000 fps
#------------------------------------------------------
:FULLY-SPECIFIED
:DEGREES
737
root 18.833060 35.645716 -23.221618 -164.798753 -0.887250 -178.454133
Spine -31.427093 1.750576 1.152116
Head 25.217055 -1.323604 -1.195705
LeftShoulder -32.461317 -51.468911 59.034643
LeftArm 41.804692 -59.382512 -13.193884
LeftForeArm 5.239625 0.000000 101.492710
LeftHand -17.895614 0.000000 -28.026212
LeftHandThumb1 -26.253704 0.000000 33.147579
RightShoulder -21.230797 16.633921 -38.423543
RightArm 41.874533 77.692052 9.250100
RightForeArm -82.111909 -0.000000 114.156765
RightHand -11.049185 -0.000000 37.752015
RightHandThumb1 -24.326973 -0.000000 -32.862282
LeftUpLeg -3.690967 7.226234 0.077356
LeftLeg -7.678599 -0.000000 0.000000
LeftFoot -21.636274 28.318337 -16.839918
LeftToeBase 23.454327 -0.000000 -0.000000
RightUpLeg -5.595433 -9.345677 1.395809
RightLeg -4.095733 -0.000000 0.000000
RightFoot -20.764737 -22.285149 20.815557
RightToeBase 22.765929 -0.000000 -0.000000
738
root 18.833171 35.646585 -23.219222 -164.837739 -0.882826 -178.452202
Spine -31.389661 1.712640 1.179437
Head 25.190545 -1.222151 -1.143883
LeftShoulder -32.387699 -51.597925 59.093660
LeftArm 42.115335 -58.942809 -13.363821
LeftForeArm 5.811768 -0.000000 100.477091
LeftHand -17.865274 -0.000000 -28.208150
LeftHandThumb1 -26.253704 0.000000 33.147579
RightShoulder -21.138428 16.631168 -38.497084
RightArm 42.174426 77.468855 9.456346
RightForeArm -82.141809 -0.000000 112.956675
RightHand -11.121226 -0.000000 37.659492
RightHandThumb1 -24.326973 -0.000000 -32.862282
LeftUpLeg -3.664931 7.258554 0.077220
LeftLeg -7.665035 -0.000000 0.000000
LeftFoot -21.638172 28.306398 -16.831400
LeftToeBase 23.489408 -0.000000 -0.000000
RightUpLeg -5.568063 -9.335939 1.391778
RightLeg -4.081949 -0.000000 0.000000
RightFoot -20.775265 -22.285954 20.848113
RightToeBase 22.515253 -0.000000 -0.000000
739
root 18.832263 35.646842 -23.216848 -164.878117 -0.878555 -178.453059
Spine -31.352240 1.683088 1.206275
Head 25.170048 -1.202984 -1.129930
LeftShoulder -32.262955 -51.695773 59.057147
LeftArm 42.554287 -58.527288 -13.624252
LeftForeArm 6.249521 -0.000000 99.390353
LeftHand -17.716164 -0.000000 -28.316493
LeftHandThumb1 -26.253704 0.000000 33.147579
RightShoulder -21.057245 16.616809 -38.576785
RightArm 42.377003 77.194245 9.557266
RightForeArm -82.132688 -0.000000 111.651994
RightHand -11.204141 -0.000000 37.149355
RightHandThumb1 -24.326973 -0.000000 -32.862282
LeftUpLeg -3.633855 7.249732 0.079956
LeftLeg -7.651779 -0.000000 0.000000
LeftFoot -21.644666 28.317148 -16.840735
LeftToeBase 23.446558 -0.000000 -0.000000
RightUpLeg -5.537841 -9.320829 1.380749
RightLeg -4.070562 -0.000000 0.000000
RightFoot -20.777774 -22.305838 20.830529
RightToeBase 22.537845 -0.000000 -0.000000
740
root 18.831862 35.646672 -23.214507 -164.923131 -0.881449 -178.453552
Spine -31.301375 1.626553 1.239562
Head 25.128972 -1.109604 -1.101376
LeftShoulder -32.188103 -51.816605 59.108668
LeftArm 42.847618 -58.054063 -13.712944
LeftForeArm 6.681353 0.000000 98.267920
LeftHand -17.613655 -0.000000 -28.499117
LeftHandThumb1 -26.253704 0.000000 33.147579
RightShoulder -20.959832 16.657692 -38.677069
RightArm 42.300093 76.895637 9.385565
RightForeArm -81.989912 0.000000 110.464235
RightHand -11.338123 -0.000000 36.934292
RightHandThumb1 -24.326973 -0.000000 -32.862282
LeftUpLeg -3.592385 7.212130 0.090564
LeftLeg -7.648830 -0.000000 0.000000
LeftFoot -21.655948 28.347067 -16.823405
LeftToeBase 23.520530 -0.000000 -0.000000
RightUpLeg -5.504194 -9.341397 1.375821
RightLeg -4.053833 -0.000000 0.000000
RightFoot -20.782971 -22.282466 20.817246
RightToeBase 22.528090 -0.000000 -0.000000
741
root 18.831648 35.646910 -23.210807 -164.956278 -0.876991 -178.456034
Spine -31.271946 1.576686 1.262691
Head 25.111503 -1.071945 -1.073742
LeftShoulder -32.063593 -51.835013 59.073421
LeftArm 43.340054 -57.672915 -14.022080
LeftForeArm 6.905097 -0.000000 97.130971
LeftHand -17.506843 -0.000000 -28.769646
LeftHandThumb1 -26.253704 0.000000 33.147579
RightShoulder -20.864374 16.637539 -38.715522
RightArm 42.757409 76.625105 9.697031
RightForeArm -82.040581 -0.000000 109.237084
RightHand -11.320914 -0.000000 36.566751
RightHandThumb1 -24.326973 -0.000000 -32.862282
LeftUpLeg -3.568410 7.207084 0.091960
LeftLeg -7.641705 -0.000000 0.000000
LeftFoot -21.645984 28.352923 -16.813251
LeftToeBase 23.503325 -0.000000 -0.000000
RightUpLeg -5.483135 -9.323342 1.365000
RightLeg -4.043162 -0.000000 0.000000
RightFoot -20.795039 -22.292592 20.825355
RightToeBase 22.542227 -0.000000 -0.000000
742
root 18.831020 35.646868 -23.207417 -164.997844 -0.868840 -178.463370
Spine -31.232361 1.515399 1.286164
Head 25.086159 -1.047455 -1.075299
LeftShoulder -31.940490 -51.939818 59.086038
LeftArm 43.522844 -57.196668 -13.932787
LeftForeArm 6.995831 0.000000 95.925291
LeftHand -17.447467 -0.000000 -28.866133
LeftHandThumb1 -26.253704 0.000000 33.147579
RightShoulder -20.764657 16.610119 -38.740448
RightArm 42.902123 76.358379 9.671994
RightForeArm -81.811403 -0.000000 108.041464
RightHand -11.467906 -0.000000 36.302130
RightHandThumb1 -24.326973 -0.000000 -32.862282
LeftUpLeg -3.545670 7.233886 0.082346
LeftLeg -7.615776 -0.000000 0.000000
LeftFoot -21.650129 28.342259 -16.794617
LeftToeBase 23.512199 -0.000000 -0.000000
RightUpLeg -5.451559 -9.322571 1.349255
RightLeg -4.036734 -0.000000 0.000000
RightFoot -20.785533 -22.291474 20.807869
RightToeBase 22.762247 -0.000000 -0.000000
743
root 18.830992 35.646527 -23.203552 -165.024245 -0.848879 -178.470263
Spine -31.215304 1.477162 1.282893
Head 25.043301 -1.074358 -1.056097
LeftShoulder -31.782443 -51.993150 59.053245
LeftArm 43.896294 -56.788184 -14.016490
LeftForeArm 7.125248 -0.000000 94.692181
LeftHand -17.392581 -0.000000 -29.100085
LeftHandThumb1 -26.253704 0.000000 33.147579
RightShoulder -20.624347 16.673234 -38.832891
RightArm 42.405769 75.995744 9.067996
RightForeArm -81.605912 -0.000000 106.906419
RightHand -11.515702 -0.000000 36.036587
RightHandThumb1 -24.326973 -0.000000 -32.862282
LeftUpLeg -3.525419 7.249600 0.074312
LeftLeg -7.612053 -0.000000 0.000000
LeftFoot -21.646468 28.339544 -16.797891
LeftToeBase 23.501722 -0.000000 -0.000000
RightUpLeg -5.439904 -9.317418 1.338235
RightLeg -4.023933 -0.000000 0.000000
RightFoot -20.789127 -22.292460 20.771317
RightToeBase 22.796732 -0.000000 -0.000000
744
root 18.830314 35.646775 -23.198171 -165.058600 -0.838677 -178.476633
Spine -31.174815 1.425642 1.319334
Head 24.985156 -1.000622 -1.040857
LeftShoulder -31.680526 -52.104273 59.080502
LeftArm 44.060157 -56.291085 -13.929618
LeftForeArm 7.083134 0.000000 93.513379
LeftHand -17.396744 0.000000 -29.278069
LeftHandThumb1 -26.253704 0.000000 33.147579
RightShoulder -20.556753 16.651090 -38.945185
RightArm 42.462465 75.676325 9.029772
RightForeArm -81.432313 0.000000 105.780355
RightHand -11.552144 0.000000 35.687323
RightHandThumb1 -24.326973 -0.000000 -32.862282
LeftUpLeg -3.505306 7.252540 0.069966
LeftLeg -7.595474 -0.000000 0.000000
LeftFoot -21.646739 28.325244 -16.798692
LeftToeBase 23.512273 -0.000000 -0.000000
RightUpLeg -5.422127 -9.306159 1.324777
RightLeg -4.007115 -0.000000 0.000000
RightFoot -20.808838 -22.313988 20.763539
RightToeBase 22.554198 -0.000000 -0.000000
